<?xml version="1.0" encoding="utf-8"?>
<!-- Generator: Adobe Illustrator 16.0.0, SVG Export Plug-In . SVG Version: 6.00 Build 0)  -->
<!DOCTYPE svg PUBLIC "-//W3C//DTD SVG 1.1//EN" "http://www.w3.org/Graphics/SVG/1.1/DTD/svg11.dtd">
<svg version="1.1" id="Layer_1" xmlns="http://www.w3.org/2000/svg" xmlns:xlink="http://www.w3.org/1999/xlink" x="0px" y="0px"
	 width="800px" height="250px" viewBox="0 0 800 250" enable-background="new 0 0 800 250" xml:space="preserve">
<g id="Layer_2" display="none">
	<rect y="0.167" display="inline" fill="#0F0808" width="800" height="250.667"/>
</g>
<path fill="#FFFFFF" d="M98.651,101.737L66.396,14.311H33.094L0.84,101.737h30.025l3.147-10.223h31.467l3.146,10.223H98.651
	L98.651,101.737z M58.398,68.444H41.092l8.653-28.181L58.398,68.444z M148.605,101.737V37.38h23.338V14.311H98.651V37.38h23.469
	v64.357H148.605z M265.689,101.737V14.311h-26.485v30.934h-31.336V14.311h-26.485v87.426h26.485V68.313h31.336v33.423H265.689z
	 M339.506,101.737V78.668h-33.171V14.311h-26.485v87.426H339.506z M416.47,101.737V78.668H376.61V69.1h38.94V46.031h-38.94V37.38
	h39.859V14.311h-66.344v87.426H416.47z M473.504,101.737V37.38h23.338V14.311H423.55V37.38h23.469v64.357H473.504L473.504,101.737z
	 M572.626,101.737V78.668h-39.86V69.1h38.942V46.031h-38.942V37.38h39.86V14.311h-66.344v87.426H572.626z M618.384,103.31
	c23.469,0,37.761-11.142,37.761-30.409c0-32.506-48.643-25.428-48.643-33.686c0-2.229,1.441-3.932,6.686-3.932
	c8.261,0,18.094,2.883,25.699,8.651l14.16-18.744C644.082,17.063,631.233,13,616.942,13c-23.994,0-36.319,14.156-36.319,28.967
	c0,34.472,48.773,25.953,48.773,34.342c0,3.408-4.719,4.719-9.701,4.719c-11.801,0-21.634-4.98-28.189-11.273l-13.767,19.662
	C587.048,97.805,599.766,103.31,618.384,103.31z M53.678,219.82c17.176,0,30.288-6.946,39.99-17.695v-35.782H51.057v23.068h16.258
	v3.146c-2.753,2.096-8.653,3.932-13.636,3.932c-12.717,0-21.24-9.699-21.24-21.89c0-12.189,8.522-21.89,21.24-21.89
	c7.867,0,13.636,5.506,16.127,10.879l22.29-11.403c-5.507-11.271-17.57-22.807-38.417-22.807c-26.485,0-48.118,17.171-48.118,45.221
	C5.56,202.519,27.193,219.82,53.678,219.82L53.678,219.82z M148.605,219.82c27.009,0,47.856-18.35,47.856-45.221
	c0-26.87-20.847-45.221-47.856-45.221c-27.01,0-47.856,18.351-47.856,45.221C100.749,201.471,121.595,219.82,148.605,219.82
	L148.605,219.82z M148.605,196.489c-12.718,0-20.979-9.699-20.979-21.89c0-12.189,8.26-21.89,20.979-21.89
	c12.718,0,20.978,9.7,20.978,21.89C169.583,186.79,161.323,196.489,148.605,196.489z M290.076,218.248V130.82h-26.485v41.42
	l-30.418-41.42h-27.271v87.428h26.485v-44.304l32.253,44.304H290.076L290.076,218.248z M370.58,218.248v-23.07h-39.859v-9.567h38.94
	v-23.07h-38.94v-8.649h39.859v-23.07h-66.344v87.428H370.58z M459.212,219.82c17.176,0,30.287-6.946,39.99-17.695v-35.782H456.59
	v23.068h16.258v3.146c-2.753,2.096-8.653,3.932-13.636,3.932c-12.718,0-21.24-9.699-21.24-21.89c0-12.189,8.522-21.89,21.24-21.89
	c7.867,0,13.636,5.506,16.127,10.879l22.29-11.403c-5.508-11.271-17.569-22.807-38.417-22.807
	c-26.485,0-48.118,17.171-48.118,45.221C411.094,202.519,432.727,219.82,459.212,219.82z M554.139,219.82
	c27.009,0,47.855-18.35,47.855-45.221c0-26.87-20.847-45.221-47.855-45.221c-27.01,0-47.856,18.351-47.856,45.221
	C506.282,201.471,527.129,219.82,554.139,219.82z M554.139,196.489c-12.718,0-20.979-9.699-20.979-21.89
	c0-12.189,8.261-21.89,20.979-21.89s20.978,9.7,20.978,21.89C575.116,186.79,566.856,196.489,554.139,196.489z M654.571,219.82
	c27.01,0,47.856-18.35,47.856-45.221c0-26.87-20.847-45.221-47.856-45.221s-47.856,18.351-47.856,45.221
	C606.715,201.471,627.562,219.82,654.571,219.82z M654.571,196.489c-12.719,0-20.978-9.699-20.978-21.89
	c0-12.189,8.259-21.89,20.978-21.89c12.718,0,20.978,9.7,20.978,21.89C675.549,186.79,667.289,196.489,654.571,196.489z
	 M751.07,218.248c27.402,0,47.856-15.86,47.856-43.779s-20.454-43.648-47.987-43.648h-39.071v87.428H751.07z M750.939,195.178
	h-12.588v-41.287h12.719c14.16,0,20.978,8.781,20.978,20.578C772.048,185.479,764.182,195.178,750.939,195.178z"/>
</svg>
