<?xml version="1.0" encoding="utf-8"?>
<!-- Generator: Adobe Illustrator 20.1.0, SVG Export Plug-In . SVG Version: 6.00 Build 0)  -->
<svg version="1.1" id="Layer_1" xmlns="http://www.w3.org/2000/svg" xmlns:xlink="http://www.w3.org/1999/xlink" x="0px" y="0px"
	 viewBox="0 0 646.8 222.3" style="enable-background:new 0 0 646.8 222.3;" xml:space="preserve">
<style type="text/css">
	.st0{opacity:0.75;filter:url(#AI_GaussianBlur_7);}
	.st1{fill:#FF33FF;}
	.st2{filter:url(#AI_GaussianBlur_7);}
	.st3{opacity:0.7;}
	.st4{fill:#FF99FF;}
	.st5{fill:#FFFF99;}
	.st6{fill:#FFFF00;}
	.st7{fill:#FFFF00;filter:url(#AI_GaussianBlur_4);}
</style>
<filter  id="AI_GaussianBlur_7">
	<feGaussianBlur  stdDeviation="7"></feGaussianBlur>
</filter>
<filter  id="AI_GaussianBlur_4">
	<feGaussianBlur  stdDeviation="4"></feGaussianBlur>
</filter>
<rect x="0" width="646.8" height="222.3"/>
<g class="st0">
	<path class="st1" d="M50.5,88.3c-10.3,0-20-3.9-27.2-11c-7.3-7.1-11.2-16.7-11.2-27c0-10.3,4-19.9,11.2-27.1
		C30.6,16,40.2,12,50.5,12c9.7,0,17.6,3,25.7,9.8l0.1,0.1l0.1,0.1c1.1,1.1,1.3,2.7,0.4,4l0,0l-0.1,0.1L76,26.8L76,26.9
		c-0.6,0.6-1.4,1-2.2,1c-0.1,0-0.2,0-0.3,0c-0.7-0.1-1.3-0.4-1.8-0.8c-6.6-5.6-13.1-8.1-21.2-8.1c-8.5,0-16.4,3.3-22.4,9.2
		c-6,5.9-9.2,13.8-9.2,22.3c0,8.4,3.3,16.3,9.2,22.2c5.9,5.8,13.9,9.1,22.4,9.1c7.7,0,15-2.9,21.1-8.5c0.6-0.5,1.4-0.9,2.2-0.9
		c0.1,0,0.2,0,0.3,0c0.8,0.1,1.5,0.5,2,1.1l0.4,0.5c0.5,0.5,0.8,1.3,0.8,2c0,0.8-0.3,1.5-0.9,2.1l0,0C69.3,84.7,60.3,88.3,50.5,88.3
		z"/>
	<path class="st1" d="M92.6,87.3c-1.8,0-3.2-1.4-3.2-3.2V16.2c0-1.8,1.4-3.2,3.2-3.2h40.3c1.8,0,3.2,1.4,3.2,3.2v0.4
		c0,1.8-1.4,3.2-3.2,3.2H96.2v25.6h31.9c1.8,0,3.2,1.4,3.2,3.2V49c0,1.8-1.4,3.2-3.2,3.2H96.2v28.3h36.7c1.8,0,3.2,1.4,3.2,3.2v0.4
		c0,1.8-1.4,3.2-3.2,3.2H92.6z"/>
	<path class="st1" d="M152.9,87.3c-1.8,0-3.2-1.4-3.2-3.2V16.2c0-1.8,1.4-3.2,3.2-3.2h0.4c1.7,0,3.1,1.4,3.1,3.2v64.3h32
		c1.8,0,3.2,1.4,3.2,3.2v0.4c0,1.8-1.4,3.2-3.2,3.2H152.9z"/>
	<path class="st1" d="M201.3,87.3c-1.8,0-3.2-1.4-3.2-3.2V16.2c0-1.8,1.4-3.2,3.2-3.2h40.3c1.8,0,3.2,1.4,3.2,3.2v0.4
		c0,1.8-1.4,3.2-3.2,3.2h-36.7v25.6h31.9c1.8,0,3.2,1.4,3.2,3.2V49c0,1.8-1.4,3.2-3.2,3.2h-31.9v28.3h36.7c1.8,0,3.2,1.4,3.2,3.2
		v0.4c0,1.8-1.4,3.2-3.2,3.2H201.3z"/>
	<path class="st1" d="M297.1,48.7c5.3-3.5,8.2-9,8.2-15.6c0-6.1-2.2-11.1-6.4-14.7c-4.1-3.5-9.9-5.3-16.9-5.3h-20.4
		c-1.8,0-3.2,1.4-3.2,3.2v67.9c0,1.8,1.4,3.2,3.2,3.2H283c14.5,0,24.6-8.7,24.6-21.1C307.6,58,303.9,51.9,297.1,48.7z M282.1,19.8
		c10.5,0,16.5,4.8,16.5,13.2c0,8-6.2,12.9-16.3,12.9h-17V19.8H282.1z M283,80.5h-17.7V52.8h18.9c6.2,0,16.6,1.7,16.6,13.4
		C300.8,74.9,293.8,80.5,283,80.5z"/>
	<path class="st1" d="M340,88.3c-12.5,0-21.2-7.4-22.8-8.9l-0.1-0.1c-0.6-0.6-1-1.4-1-2.2c0-0.8,0.3-1.6,1-2.2l0.4-0.4
		c0.6-0.6,1.4-0.9,2.2-0.9c0.6,0,1.4,0.2,2.2,0.9l0,0c5.3,4.5,11.6,6.9,18.1,6.9c9.5,0,17.6-6,17.6-13.1c0-7.8-4.9-11.7-19.3-15.6
		c-11.4-3.1-22.5-7.3-22.5-20.9c0-5.3,2.1-10.1,6-13.7c4.3-4,10.6-6.1,18.1-6.1c10,0,17.5,4.8,18.5,5.5l0,0c1.4,1,1.8,2.8,0.9,4.3
		l-0.4,0.6c-0.8,1.2-1.9,1.4-2.5,1.4c-0.5,0-1-0.1-1.5-0.4l-0.1,0l-0.2-0.1c-0.3-0.2-6.8-4.4-14.8-4.4c-12.7,0-17.3,6.7-17.3,13
		c0,7.2,4.4,10.8,17.5,14.3c15,4.2,24.3,9.4,24.3,22.2c0,5.4-2.7,10.4-7.5,14.2C352.2,86.2,346.1,88.3,340,88.3z"/>
	<path class="st1" d="M50.5,207.1c-10.3,0-20-3.9-27.2-11c-7.3-7.1-11.2-16.7-11.2-27c0-10.3,4-19.9,11.2-27.1
		c7.2-7.2,16.9-11.1,27.2-11.1c9.7,0,17.6,3,25.7,9.8l0.1,0.1l0.1,0.1c1.1,1.1,1.3,2.7,0.4,4l0,0.1l-0.1,0.1l-0.1,0.1l-0.6,0.7
		l-0.1,0.1c-0.6,0.6-1.4,1-2.2,1c-0.1,0-0.1,0-0.2,0l-0.1,0c-0.7-0.1-1.3-0.4-1.8-0.8c-6.6-5.6-13.1-8.1-21.2-8.1
		c-8.5,0-16.4,3.3-22.4,9.2c-6,5.9-9.2,13.8-9.2,22.3c0,8.4,3.3,16.3,9.2,22.2c5.9,5.8,13.9,9.1,22.4,9.1c1.4,0,13.2-0.2,20.8-5.6
		v-19.5h-20c-1.8,0-3.2-1.4-3.2-3.2v-0.4c0-1.7,1.4-3.1,3.2-3.1h23.6c1.8,0,3.2,1.4,3.2,3.1v25.7l-0.4,0.6
		C76.4,200,66.8,207.1,50.5,207.1z"/>
	<path class="st1" d="M125.1,207.1c-10.3,0-19.9-3.9-27.1-11c-7.2-7.1-11.1-16.7-11.1-27c0-10.3,4-19.9,11.1-27.1
		c7.2-7.2,16.8-11.1,27.1-11.1c10.3,0,19.9,4,27.1,11.1c7.2,7.2,11.2,16.8,11.2,27.1c0,10.3-4,19.9-11.2,27
		C145.1,203.1,135.4,207.1,125.1,207.1z M125.1,137.6c-8.5,0-16.4,3.2-22.3,9.2c-5.9,5.9-9.2,13.8-9.2,22.3
		c0,17.5,13.8,31.2,31.4,31.2c8.5,0,16.4-3.2,22.4-9.1c5.9-5.9,9.2-13.7,9.2-22.2c0-8.5-3.3-16.4-9.2-22.3
		C141.5,140.8,133.6,137.6,125.1,137.6z"/>
	<path class="st1" d="M231.6,207.6c-1,0-2-0.5-2.6-1.4l-46.6-62.1v58.8c0,1.8-1.4,3.2-3.2,3.2h-0.4c-1.8,0-3.2-1.4-3.2-3.2v-69.6
		c0-1.4,0.9-2.7,2.3-3.1c0.3-0.1,0.6-0.1,0.9-0.1c1,0,2,0.5,2.6,1.4l46.6,62.1V135c0-1.8,1.4-3.2,3.2-3.2h0.4c1.8,0,3.2,1.4,3.2,3.2
		v69.4c0,1.4-0.9,2.7-2.3,3.1C232.2,207.5,231.9,207.6,231.6,207.6z"/>
	<path class="st1" d="M255.2,206.1c-1.8,0-3.2-1.4-3.2-3.2V135c0-1.8,1.4-3.2,3.2-3.2h40.3c1.8,0,3.2,1.4,3.2,3.2v0.4
		c0,1.8-1.4,3.2-3.2,3.2h-36.7v25.6h31.9c1.8,0,3.2,1.4,3.2,3.2v0.4c0,1.8-1.4,3.2-3.2,3.2h-31.9v28.3h36.7c1.8,0,3.2,1.4,3.2,3.2
		v0.4c0,1.8-1.4,3.2-3.2,3.2H255.2z"/>
	<path class="st1" d="M366.8,207.1c-10.3,0-20-3.9-27.2-11c-7.3-7.1-11.2-16.7-11.2-27c0-10.3,4-19.9,11.2-27.1
		c7.2-7.2,16.9-11.1,27.2-11.1c9.7,0,17.6,3,25.7,9.8l0.1,0.1l0.1,0.1c1.1,1.1,1.3,2.7,0.4,4l0,0.1l-0.1,0.1l-0.6,0.7l-0.1,0.1
		c-0.6,0.6-1.4,0.9-2.2,0.9c-0.8,0-1.5-0.3-2.1-0.9c-6.6-5.6-13.1-8.1-21.2-8.1c-8.5,0-16.4,3.3-22.4,9.2c-6,5.9-9.2,13.8-9.2,22.3
		c0,8.4,3.3,16.3,9.2,22.2c5.9,5.8,13.9,9.1,22.4,9.1c1.4,0,13.2-0.2,20.8-5.6v-19.5h-20c-1.8,0-3.2-1.4-3.2-3.2v-0.4
		c0-1.7,1.4-3.1,3.2-3.1h23.6c1.8,0,3.2,1.4,3.2,3.1v25.7L394,198C392.7,200,383.1,207.1,366.8,207.1z"/>
	<path class="st1" d="M441.4,207.1c-10.3,0-19.9-3.9-27.1-11c-7.2-7.1-11.1-16.7-11.1-27c0-10.3,4-19.9,11.1-27.1
		c7.2-7.2,16.8-11.1,27.1-11.1c10.3,0,19.9,4,27.1,11.1c7.2,7.2,11.2,16.8,11.2,27.1c0,10.3-4,19.9-11.2,27
		C461.4,203.1,451.7,207.1,441.4,207.1z M441.4,137.6c-8.5,0-16.4,3.2-22.3,9.2c-5.9,5.9-9.2,13.8-9.2,22.3
		c0,17.5,13.8,31.2,31.4,31.2c8.5,0,16.4-3.2,22.4-9.1c5.9-5.9,9.2-13.7,9.2-22.2c0-8.5-3.3-16.4-9.2-22.3
		C457.8,140.8,449.9,137.6,441.4,137.6z"/>
	<path class="st1" d="M525.1,207.1c-10.3,0-19.9-3.9-27.1-11c-7.2-7.1-11.1-16.7-11.1-27c0-10.3,4-19.9,11.1-27.1
		c7.2-7.2,16.8-11.1,27.1-11.1c10.3,0,19.9,4,27.1,11.1c7.2,7.2,11.2,16.8,11.2,27.1c0,10.3-4,19.9-11.2,27
		C545.1,203.1,535.5,207.1,525.1,207.1z M525.1,137.6c-8.5,0-16.4,3.2-22.3,9.2c-5.9,5.9-9.1,13.8-9.1,22.3
		c0,17.5,13.8,31.2,31.4,31.2c8.5,0,16.4-3.2,22.4-9.1c5.9-5.9,9.2-13.7,9.2-22.2c0-8.5-3.3-16.4-9.2-22.3
		C541.6,140.8,533.6,137.6,525.1,137.6z"/>
	<path class="st1" d="M578.7,206.1c-1.7,0-3.1-1.4-3.1-3.2V135c0-1.8,1.4-3.2,3.1-3.2h19.8c20.6,0,37.4,16.6,37.4,37
		c0,10-3.9,19.4-11,26.4c-7.1,7-16.5,10.9-26.5,10.9H578.7z M598.5,199.3c17,0,30.8-13.7,30.8-30.5c0-16.7-13.8-30.3-30.8-30.3
		h-16.2v60.7H598.5z"/>
</g>
<g class="st2">
	<path class="st1" d="M50.5,88.3c-10.3,0-20-3.9-27.2-11c-7.3-7.1-11.2-16.7-11.2-27c0-10.3,4-19.9,11.2-27.1
		C30.6,16,40.2,12,50.5,12c9.7,0,17.6,3,25.7,9.8l0.1,0.1l0.1,0.1c1.1,1.1,1.3,2.7,0.4,4l0,0l-0.1,0.1L76,26.8L76,26.9
		c-0.6,0.6-1.4,1-2.2,1c-0.1,0-0.2,0-0.3,0c-0.7-0.1-1.3-0.4-1.8-0.8c-6.6-5.6-13.1-8.1-21.2-8.1c-8.5,0-16.4,3.3-22.4,9.2
		c-6,5.9-9.2,13.8-9.2,22.3c0,8.4,3.3,16.3,9.2,22.2c5.9,5.8,13.9,9.1,22.4,9.1c7.7,0,15-2.9,21.1-8.5c0.6-0.5,1.4-0.9,2.2-0.9
		c0.1,0,0.2,0,0.3,0c0.8,0.1,1.5,0.5,2,1.1l0.4,0.5c0.5,0.5,0.8,1.3,0.8,2c0,0.8-0.3,1.5-0.9,2.1l0,0C69.3,84.7,60.3,88.3,50.5,88.3
		z"/>
	<path class="st1" d="M92.6,87.3c-1.8,0-3.2-1.4-3.2-3.2V16.2c0-1.8,1.4-3.2,3.2-3.2h40.3c1.8,0,3.2,1.4,3.2,3.2v0.4
		c0,1.8-1.4,3.2-3.2,3.2H96.2v25.6h31.9c1.8,0,3.2,1.4,3.2,3.2V49c0,1.8-1.4,3.2-3.2,3.2H96.2v28.3h36.7c1.8,0,3.2,1.4,3.2,3.2v0.4
		c0,1.8-1.4,3.2-3.2,3.2H92.6z"/>
	<path class="st1" d="M152.9,87.3c-1.8,0-3.2-1.4-3.2-3.2V16.2c0-1.8,1.4-3.2,3.2-3.2h0.4c1.7,0,3.1,1.4,3.1,3.2v64.3h32
		c1.8,0,3.2,1.4,3.2,3.2v0.4c0,1.8-1.4,3.2-3.2,3.2H152.9z"/>
	<path class="st1" d="M201.3,87.3c-1.8,0-3.2-1.4-3.2-3.2V16.2c0-1.8,1.4-3.2,3.2-3.2h40.3c1.8,0,3.2,1.4,3.2,3.2v0.4
		c0,1.8-1.4,3.2-3.2,3.2h-36.7v25.6h31.9c1.8,0,3.2,1.4,3.2,3.2V49c0,1.8-1.4,3.2-3.2,3.2h-31.9v28.3h36.7c1.8,0,3.2,1.4,3.2,3.2
		v0.4c0,1.8-1.4,3.2-3.2,3.2H201.3z"/>
	<path class="st1" d="M297.1,48.7c5.3-3.5,8.2-9,8.2-15.6c0-6.1-2.2-11.1-6.4-14.7c-4.1-3.5-9.9-5.3-16.9-5.3h-20.4
		c-1.8,0-3.2,1.4-3.2,3.2v67.9c0,1.8,1.4,3.2,3.2,3.2H283c14.5,0,24.6-8.7,24.6-21.1C307.6,58,303.9,51.9,297.1,48.7z M282.1,19.8
		c10.5,0,16.5,4.8,16.5,13.2c0,8-6.2,12.9-16.3,12.9h-17V19.8H282.1z M283,80.5h-17.7V52.8h18.9c6.2,0,16.6,1.7,16.6,13.4
		C300.8,74.9,293.8,80.5,283,80.5z"/>
	<path class="st1" d="M340,88.3c-12.5,0-21.2-7.4-22.8-8.9l-0.1-0.1c-0.6-0.6-1-1.4-1-2.2c0-0.8,0.3-1.6,1-2.2l0.4-0.4
		c0.6-0.6,1.4-0.9,2.2-0.9c0.6,0,1.4,0.2,2.2,0.9l0,0c5.3,4.5,11.6,6.9,18.1,6.9c9.5,0,17.6-6,17.6-13.1c0-7.8-4.9-11.7-19.3-15.6
		c-11.4-3.1-22.5-7.3-22.5-20.9c0-5.3,2.1-10.1,6-13.7c4.3-4,10.6-6.1,18.1-6.1c10,0,17.5,4.8,18.5,5.5l0,0c1.4,1,1.8,2.8,0.9,4.3
		l-0.4,0.6c-0.8,1.2-1.9,1.4-2.5,1.4c-0.5,0-1-0.1-1.5-0.4l-0.1,0l-0.2-0.1c-0.3-0.2-6.8-4.4-14.8-4.4c-12.7,0-17.3,6.7-17.3,13
		c0,7.2,4.4,10.8,17.5,14.3c15,4.2,24.3,9.4,24.3,22.2c0,5.4-2.7,10.4-7.5,14.2C352.2,86.2,346.1,88.3,340,88.3z"/>
	<path class="st1" d="M50.5,207.1c-10.3,0-20-3.9-27.2-11c-7.3-7.1-11.2-16.7-11.2-27c0-10.3,4-19.9,11.2-27.1
		c7.2-7.2,16.9-11.1,27.2-11.1c9.7,0,17.6,3,25.7,9.8l0.1,0.1l0.1,0.1c1.1,1.1,1.3,2.7,0.4,4l0,0.1l-0.1,0.1l-0.1,0.1l-0.6,0.7
		l-0.1,0.1c-0.6,0.6-1.4,1-2.2,1c-0.1,0-0.1,0-0.2,0l-0.1,0c-0.7-0.1-1.3-0.4-1.8-0.8c-6.6-5.6-13.1-8.1-21.2-8.1
		c-8.5,0-16.4,3.3-22.4,9.2c-6,5.9-9.2,13.8-9.2,22.3c0,8.4,3.3,16.3,9.2,22.2c5.9,5.8,13.9,9.1,22.4,9.1c1.4,0,13.2-0.2,20.8-5.6
		v-19.5h-20c-1.8,0-3.2-1.4-3.2-3.2v-0.4c0-1.7,1.4-3.1,3.2-3.1h23.6c1.8,0,3.2,1.4,3.2,3.1v25.7l-0.4,0.6
		C76.4,200,66.8,207.1,50.5,207.1z"/>
	<path class="st1" d="M125.1,207.1c-10.3,0-19.9-3.9-27.1-11c-7.2-7.1-11.1-16.7-11.1-27c0-10.3,4-19.9,11.1-27.1
		c7.2-7.2,16.8-11.1,27.1-11.1c10.3,0,19.9,4,27.1,11.1c7.2,7.2,11.2,16.8,11.2,27.1c0,10.3-4,19.9-11.2,27
		C145.1,203.1,135.4,207.1,125.1,207.1z M125.1,137.6c-8.5,0-16.4,3.2-22.3,9.2c-5.9,5.9-9.2,13.8-9.2,22.3
		c0,17.5,13.8,31.2,31.4,31.2c8.5,0,16.4-3.2,22.4-9.1c5.9-5.9,9.2-13.7,9.2-22.2c0-8.5-3.3-16.4-9.2-22.3
		C141.5,140.8,133.6,137.6,125.1,137.6z"/>
	<path class="st1" d="M231.6,207.6c-1,0-2-0.5-2.6-1.4l-46.6-62.1v58.8c0,1.8-1.4,3.2-3.2,3.2h-0.4c-1.8,0-3.2-1.4-3.2-3.2v-69.6
		c0-1.4,0.9-2.7,2.3-3.1c0.3-0.1,0.6-0.1,0.9-0.1c1,0,2,0.5,2.6,1.4l46.6,62.1V135c0-1.8,1.4-3.2,3.2-3.2h0.4c1.8,0,3.2,1.4,3.2,3.2
		v69.4c0,1.4-0.9,2.7-2.3,3.1C232.2,207.5,231.9,207.6,231.6,207.6z"/>
	<path class="st1" d="M255.2,206.1c-1.8,0-3.2-1.4-3.2-3.2V135c0-1.8,1.4-3.2,3.2-3.2h40.3c1.8,0,3.2,1.4,3.2,3.2v0.4
		c0,1.8-1.4,3.2-3.2,3.2h-36.7v25.6h31.9c1.8,0,3.2,1.4,3.2,3.2v0.4c0,1.8-1.4,3.2-3.2,3.2h-31.9v28.3h36.7c1.8,0,3.2,1.4,3.2,3.2
		v0.4c0,1.8-1.4,3.2-3.2,3.2H255.2z"/>
	<path class="st1" d="M366.8,207.1c-10.3,0-20-3.9-27.2-11c-7.3-7.1-11.2-16.7-11.2-27c0-10.3,4-19.9,11.2-27.1
		c7.2-7.2,16.9-11.1,27.2-11.1c9.7,0,17.6,3,25.7,9.8l0.1,0.1l0.1,0.1c1.1,1.1,1.3,2.7,0.4,4l0,0.1l-0.1,0.1l-0.6,0.7l-0.1,0.1
		c-0.6,0.6-1.4,0.9-2.2,0.9c-0.8,0-1.5-0.3-2.1-0.9c-6.6-5.6-13.1-8.1-21.2-8.1c-8.5,0-16.4,3.3-22.4,9.2c-6,5.9-9.2,13.8-9.2,22.3
		c0,8.4,3.3,16.3,9.2,22.2c5.9,5.8,13.9,9.1,22.4,9.1c1.4,0,13.2-0.2,20.8-5.6v-19.5h-20c-1.8,0-3.2-1.4-3.2-3.2v-0.4
		c0-1.7,1.4-3.1,3.2-3.1h23.6c1.8,0,3.2,1.4,3.2,3.1v25.7L394,198C392.7,200,383.1,207.1,366.8,207.1z"/>
	<path class="st1" d="M441.4,207.1c-10.3,0-19.9-3.9-27.1-11c-7.2-7.1-11.1-16.7-11.1-27c0-10.3,4-19.9,11.1-27.1
		c7.2-7.2,16.8-11.1,27.1-11.1c10.3,0,19.9,4,27.1,11.1c7.2,7.2,11.2,16.8,11.2,27.1c0,10.3-4,19.9-11.2,27
		C461.4,203.1,451.7,207.1,441.4,207.1z M441.4,137.6c-8.5,0-16.4,3.2-22.3,9.2c-5.9,5.9-9.2,13.8-9.2,22.3
		c0,17.5,13.8,31.2,31.4,31.2c8.5,0,16.4-3.2,22.4-9.1c5.9-5.9,9.2-13.7,9.2-22.2c0-8.5-3.3-16.4-9.2-22.3
		C457.8,140.8,449.9,137.6,441.4,137.6z"/>
	<path class="st1" d="M525.1,207.1c-10.3,0-19.9-3.9-27.1-11c-7.2-7.1-11.1-16.7-11.1-27c0-10.3,4-19.9,11.1-27.1
		c7.2-7.2,16.8-11.1,27.1-11.1c10.3,0,19.9,4,27.1,11.1c7.2,7.2,11.2,16.8,11.2,27.1c0,10.3-4,19.9-11.2,27
		C545.1,203.1,535.5,207.1,525.1,207.1z M525.1,137.6c-8.5,0-16.4,3.2-22.3,9.2c-5.9,5.9-9.1,13.8-9.1,22.3
		c0,17.5,13.8,31.2,31.4,31.2c8.5,0,16.4-3.2,22.4-9.1c5.9-5.9,9.2-13.7,9.2-22.2c0-8.5-3.3-16.4-9.2-22.3
		C541.6,140.8,533.6,137.6,525.1,137.6z"/>
	<path class="st1" d="M578.7,206.1c-1.7,0-3.1-1.4-3.1-3.2V135c0-1.8,1.4-3.2,3.1-3.2h19.8c20.6,0,37.4,16.6,37.4,37
		c0,10-3.9,19.4-11,26.4c-7.1,7-16.5,10.9-26.5,10.9H578.7z M598.5,199.3c17,0,30.8-13.7,30.8-30.5c0-16.7-13.8-30.3-30.8-30.3
		h-16.2v60.7H598.5z"/>
</g>
<g>
	<path class="st1" d="M50.5,88.3c-10.3,0-20-3.9-27.2-11c-7.3-7.1-11.2-16.7-11.2-27c0-10.3,4-19.9,11.2-27.1
		C30.6,16,40.2,12,50.5,12c9.7,0,17.6,3,25.7,9.8l0.1,0.1l0.1,0.1c1.1,1.1,1.3,2.7,0.4,4l0,0l-0.1,0.1L76,26.8L76,26.9
		c-0.6,0.6-1.4,1-2.2,1c-0.1,0-0.2,0-0.3,0c-0.7-0.1-1.3-0.4-1.8-0.8c-6.6-5.6-13.1-8.1-21.2-8.1c-8.5,0-16.4,3.3-22.4,9.2
		c-6,5.9-9.2,13.8-9.2,22.3c0,8.4,3.3,16.3,9.2,22.2c5.9,5.8,13.9,9.1,22.4,9.1c7.7,0,15-2.9,21.1-8.5c0.6-0.5,1.4-0.9,2.2-0.9
		c0.1,0,0.2,0,0.3,0c0.8,0.1,1.5,0.5,2,1.1l0.4,0.5c0.5,0.5,0.8,1.3,0.8,2c0,0.8-0.3,1.5-0.9,2.1l0,0C69.3,84.7,60.3,88.3,50.5,88.3
		z"/>
	<path class="st1" d="M92.6,87.3c-1.8,0-3.2-1.4-3.2-3.2V16.2c0-1.8,1.4-3.2,3.2-3.2h40.3c1.8,0,3.2,1.4,3.2,3.2v0.4
		c0,1.8-1.4,3.2-3.2,3.2H96.2v25.6h31.9c1.8,0,3.2,1.4,3.2,3.2V49c0,1.8-1.4,3.2-3.2,3.2H96.2v28.3h36.7c1.8,0,3.2,1.4,3.2,3.2v0.4
		c0,1.8-1.4,3.2-3.2,3.2H92.6z"/>
	<path class="st1" d="M152.9,87.3c-1.8,0-3.2-1.4-3.2-3.2V16.2c0-1.8,1.4-3.2,3.2-3.2h0.4c1.7,0,3.1,1.4,3.1,3.2v64.3h32
		c1.8,0,3.2,1.4,3.2,3.2v0.4c0,1.8-1.4,3.2-3.2,3.2H152.9z"/>
	<path class="st1" d="M201.3,87.3c-1.8,0-3.2-1.4-3.2-3.2V16.2c0-1.8,1.4-3.2,3.2-3.2h40.3c1.8,0,3.2,1.4,3.2,3.2v0.4
		c0,1.8-1.4,3.2-3.2,3.2h-36.7v25.6h31.9c1.8,0,3.2,1.4,3.2,3.2V49c0,1.8-1.4,3.2-3.2,3.2h-31.9v28.3h36.7c1.8,0,3.2,1.4,3.2,3.2
		v0.4c0,1.8-1.4,3.2-3.2,3.2H201.3z"/>
	<path class="st1" d="M297.1,48.7c5.3-3.5,8.2-9,8.2-15.6c0-6.1-2.2-11.1-6.4-14.7c-4.1-3.5-9.9-5.3-16.9-5.3h-20.4
		c-1.8,0-3.2,1.4-3.2,3.2v67.9c0,1.8,1.4,3.2,3.2,3.2H283c14.5,0,24.6-8.7,24.6-21.1C307.6,58,303.9,51.9,297.1,48.7z M282.1,19.8
		c10.5,0,16.5,4.8,16.5,13.2c0,8-6.2,12.9-16.3,12.9h-17V19.8H282.1z M283,80.5h-17.7V52.8h18.9c6.2,0,16.6,1.7,16.6,13.4
		C300.8,74.9,293.8,80.5,283,80.5z"/>
	<path class="st1" d="M340,88.3c-12.5,0-21.2-7.4-22.8-8.9l-0.1-0.1c-0.6-0.6-1-1.4-1-2.2c0-0.8,0.3-1.6,1-2.2l0.4-0.4
		c0.6-0.6,1.4-0.9,2.2-0.9c0.6,0,1.4,0.2,2.2,0.9l0,0c5.3,4.5,11.6,6.9,18.1,6.9c9.5,0,17.6-6,17.6-13.1c0-7.8-4.9-11.7-19.3-15.6
		c-11.4-3.1-22.5-7.3-22.5-20.9c0-5.3,2.1-10.1,6-13.7c4.3-4,10.6-6.1,18.1-6.1c10,0,17.5,4.8,18.5,5.5l0,0c1.4,1,1.8,2.8,0.9,4.3
		l-0.4,0.6c-0.8,1.2-1.9,1.4-2.5,1.4c-0.5,0-1-0.1-1.5-0.4l-0.1,0l-0.2-0.1c-0.3-0.2-6.8-4.4-14.8-4.4c-12.7,0-17.3,6.7-17.3,13
		c0,7.2,4.4,10.8,17.5,14.3c15,4.2,24.3,9.4,24.3,22.2c0,5.4-2.7,10.4-7.5,14.2C352.2,86.2,346.1,88.3,340,88.3z"/>
	<path class="st1" d="M50.5,207.1c-10.3,0-20-3.9-27.2-11c-7.3-7.1-11.2-16.7-11.2-27c0-10.3,4-19.9,11.2-27.1
		c7.2-7.2,16.9-11.1,27.2-11.1c9.7,0,17.6,3,25.7,9.8l0.1,0.1l0.1,0.1c1.1,1.1,1.3,2.7,0.4,4l0,0.1l-0.1,0.1l-0.1,0.1l-0.6,0.7
		l-0.1,0.1c-0.6,0.6-1.4,1-2.2,1c-0.1,0-0.1,0-0.2,0l-0.1,0c-0.7-0.1-1.3-0.4-1.8-0.8c-6.6-5.6-13.1-8.1-21.2-8.1
		c-8.5,0-16.4,3.3-22.4,9.2c-6,5.9-9.2,13.8-9.2,22.3c0,8.4,3.3,16.3,9.2,22.2c5.9,5.8,13.9,9.1,22.4,9.1c1.4,0,13.2-0.2,20.8-5.6
		v-19.5h-20c-1.8,0-3.2-1.4-3.2-3.2v-0.4c0-1.7,1.4-3.1,3.2-3.1h23.6c1.8,0,3.2,1.4,3.2,3.1v25.7l-0.4,0.6
		C76.4,200,66.8,207.1,50.5,207.1z"/>
	<path class="st1" d="M125.1,207.1c-10.3,0-19.9-3.9-27.1-11c-7.2-7.1-11.1-16.7-11.1-27c0-10.3,4-19.9,11.1-27.1
		c7.2-7.2,16.8-11.1,27.1-11.1c10.3,0,19.9,4,27.1,11.1c7.2,7.2,11.2,16.8,11.2,27.1c0,10.3-4,19.9-11.2,27
		C145.1,203.1,135.4,207.1,125.1,207.1z M125.1,137.6c-8.5,0-16.4,3.2-22.3,9.2c-5.9,5.9-9.2,13.8-9.2,22.3
		c0,17.5,13.8,31.2,31.4,31.2c8.5,0,16.4-3.2,22.4-9.1c5.9-5.9,9.2-13.7,9.2-22.2c0-8.5-3.3-16.4-9.2-22.3
		C141.5,140.8,133.6,137.6,125.1,137.6z"/>
	<path class="st1" d="M231.6,207.6c-1,0-2-0.5-2.6-1.4l-46.6-62.1v58.8c0,1.8-1.4,3.2-3.2,3.2h-0.4c-1.8,0-3.2-1.4-3.2-3.2v-69.6
		c0-1.4,0.9-2.7,2.3-3.1c0.3-0.1,0.6-0.1,0.9-0.1c1,0,2,0.5,2.6,1.4l46.6,62.1V135c0-1.8,1.4-3.2,3.2-3.2h0.4c1.8,0,3.2,1.4,3.2,3.2
		v69.4c0,1.4-0.9,2.7-2.3,3.1C232.2,207.5,231.9,207.6,231.6,207.6z"/>
	<path class="st1" d="M255.2,206.1c-1.8,0-3.2-1.4-3.2-3.2V135c0-1.8,1.4-3.2,3.2-3.2h40.3c1.8,0,3.2,1.4,3.2,3.2v0.4
		c0,1.8-1.4,3.2-3.2,3.2h-36.7v25.6h31.9c1.8,0,3.2,1.4,3.2,3.2v0.4c0,1.8-1.4,3.2-3.2,3.2h-31.9v28.3h36.7c1.8,0,3.2,1.4,3.2,3.2
		v0.4c0,1.8-1.4,3.2-3.2,3.2H255.2z"/>
	<path class="st1" d="M366.8,207.1c-10.3,0-20-3.9-27.2-11c-7.3-7.1-11.2-16.7-11.2-27c0-10.3,4-19.9,11.2-27.1
		c7.2-7.2,16.9-11.1,27.2-11.1c9.7,0,17.6,3,25.7,9.8l0.1,0.1l0.1,0.1c1.1,1.1,1.3,2.7,0.4,4l0,0.1l-0.1,0.1l-0.6,0.7l-0.1,0.1
		c-0.6,0.6-1.4,0.9-2.2,0.9c-0.8,0-1.5-0.3-2.1-0.9c-6.6-5.6-13.1-8.1-21.2-8.1c-8.5,0-16.4,3.3-22.4,9.2c-6,5.9-9.2,13.8-9.2,22.3
		c0,8.4,3.3,16.3,9.2,22.2c5.9,5.8,13.9,9.1,22.4,9.1c1.4,0,13.2-0.2,20.8-5.6v-19.5h-20c-1.8,0-3.2-1.4-3.2-3.2v-0.4
		c0-1.7,1.4-3.1,3.2-3.1h23.6c1.8,0,3.2,1.4,3.2,3.1v25.7L394,198C392.7,200,383.1,207.1,366.8,207.1z"/>
	<path class="st1" d="M441.4,207.1c-10.3,0-19.9-3.9-27.1-11c-7.2-7.1-11.1-16.7-11.1-27c0-10.3,4-19.9,11.1-27.1
		c7.2-7.2,16.8-11.1,27.1-11.1c10.3,0,19.9,4,27.1,11.1c7.2,7.2,11.2,16.8,11.2,27.1c0,10.3-4,19.9-11.2,27
		C461.4,203.1,451.7,207.1,441.4,207.1z M441.4,137.6c-8.5,0-16.4,3.2-22.3,9.2c-5.9,5.9-9.2,13.8-9.2,22.3
		c0,17.5,13.8,31.2,31.4,31.2c8.5,0,16.4-3.2,22.4-9.1c5.9-5.9,9.2-13.7,9.2-22.2c0-8.5-3.3-16.4-9.2-22.3
		C457.8,140.8,449.9,137.6,441.4,137.6z"/>
	<path class="st1" d="M525.1,207.1c-10.3,0-19.9-3.9-27.1-11c-7.2-7.1-11.1-16.7-11.1-27c0-10.3,4-19.9,11.1-27.1
		c7.2-7.2,16.8-11.1,27.1-11.1c10.3,0,19.9,4,27.1,11.1c7.2,7.2,11.2,16.8,11.2,27.1c0,10.3-4,19.9-11.2,27
		C545.1,203.1,535.5,207.1,525.1,207.1z M525.1,137.6c-8.5,0-16.4,3.2-22.3,9.2c-5.9,5.9-9.1,13.8-9.1,22.3
		c0,17.5,13.8,31.2,31.4,31.2c8.5,0,16.4-3.2,22.4-9.1c5.9-5.9,9.2-13.7,9.2-22.2c0-8.5-3.3-16.4-9.2-22.3
		C541.6,140.8,533.6,137.6,525.1,137.6z"/>
	<path class="st1" d="M578.7,206.1c-1.7,0-3.1-1.4-3.1-3.2V135c0-1.8,1.4-3.2,3.1-3.2h19.8c20.6,0,37.4,16.6,37.4,37
		c0,10-3.9,19.4-11,26.4c-7.1,7-16.5,10.9-26.5,10.9H578.7z M598.5,199.3c17,0,30.8-13.7,30.8-30.5c0-16.7-13.8-30.3-30.8-30.3
		h-16.2v60.7H598.5z"/>
</g>
<g class="st3">
	<g>
		<path class="st4" d="M75.2,75.8c0,0.2-0.1,0.5-0.3,0.6c-6.7,6.4-15.2,9.8-24.4,9.8c-9.8,0-18.9-3.7-25.7-10.4
			C17.9,69.1,14.2,60,14.2,50.3c0-9.7,3.8-18.8,10.6-25.6c6.8-6.8,16-10.5,25.7-10.5c9.1,0,16.6,2.9,24.3,9.3
			c0.4,0.4,0.5,0.9,0.2,1.3l0,0l-0.5,0.6c-0.3,0.3-0.6,0.4-0.8,0.3c-0.2,0-0.4-0.1-0.6-0.3c-7-6-13.9-8.7-22.6-8.7
			c-9,0-17.5,3.5-23.9,9.8c-6.4,6.3-9.9,14.7-9.9,23.8c0,9,3.5,17.4,9.9,23.7c6.3,6.2,14.8,9.7,23.9,9.7c8.2,0,16-3.1,22.6-9.1
			c0.2-0.2,0.5-0.3,0.8-0.3c0.2,0,0.5,0.1,0.6,0.3l0.5,0.6C75.1,75.3,75.2,75.6,75.2,75.8z"/>
		<path class="st4" d="M94.1,17.8v29.7h34c0.6,0,1.1,0.5,1.1,1.1V49c0,0.6-0.5,1.1-1.1,1.1h-34v32.5h38.8c0.6,0,1.1,0.5,1.1,1.1v0.4
			c0,0.6-0.5,1.1-1.1,1.1H92.6c-0.6,0-1.1-0.5-1.1-1.1V16.3c0-0.6,0.5-1.1,1.1-1.1h40.3c0.6,0,1.1,0.5,1.1,1.1v0.4
			c0,0.6-0.5,1.1-1.1,1.1H94.1z"/>
		<path class="st4" d="M189.6,83.8v0.4c0,0.6-0.5,1.1-1.1,1.1h-35.5c-0.6,0-1.1-0.5-1.1-1.1V16.3c0-0.6,0.5-1.1,1.1-1.1h0.4
			c0.5,0,1,0.5,1,1.1v66.4h34.1C189.1,82.7,189.6,83.1,189.6,83.8z"/>
		<path class="st4" d="M202.8,17.8v29.7h34c0.6,0,1.1,0.5,1.1,1.1V49c0,0.6-0.5,1.1-1.1,1.1h-34v32.5h38.8c0.6,0,1.1,0.5,1.1,1.1
			v0.4c0,0.6-0.5,1.1-1.1,1.1h-40.3c-0.6,0-1.1-0.5-1.1-1.1V16.3c0-0.6,0.5-1.1,1.1-1.1h40.3c0.6,0,1.1,0.5,1.1,1.1v0.4
			c0,0.6-0.5,1.1-1.1,1.1H202.8z"/>
		<path class="st4" d="M291.9,49c7.3-2.7,11.4-8.4,11.4-15.9c0-11.1-8.1-17.9-21.2-17.9h-20.4c-0.6,0-1.1,0.5-1.1,1.1v67.9
			c0,0.6,0.5,1.1,1.1,1.1H283c13.2,0,22.5-7.8,22.5-19C305.5,57.3,300.7,51.2,291.9,49z M283,82.7h-19.8V50.7h21
			c11.9,0,18.7,5.7,18.7,15.5C302.8,76.1,294.9,82.7,283,82.7z M262.4,16.9h19.7c12.2,0,19.4,6,19.4,16.2c0,9.6-7.5,15.9-19.2,15.9
			h-19.9V16.9z"/>
		<path class="st4" d="M362.3,68.4c0,4.7-2.4,9.2-6.8,12.6c-4.2,3.3-9.9,5.2-15.5,5.2c-11.7,0-19.9-6.9-21.4-8.3
			c-0.5-0.5-0.5-1,0-1.5l0.4-0.4c0.2-0.2,0.7-0.6,1.5,0.1l0.1,0.1c5.7,4.8,12.4,7.4,19.4,7.4c10.7,0,19.7-7,19.7-15.2
			c0-10.1-7.7-14.1-20.9-17.6c-11.1-3-21-6.7-21-18.9c0-8.8,6.8-17.7,22-17.7c9.9,0,17.3,5.1,17.4,5.1c0.5,0.3,0.6,0.9,0.3,1.4
			l-0.4,0.6c-0.3,0.5-0.8,0.6-1.3,0.3l-0.1,0c-0.1,0-7-4.8-15.9-4.8c-14.3,0-19.4,8.1-19.4,15.1c0,9.4,7,13.1,19.1,16.3
			C353.9,52.3,362.3,56.8,362.3,68.4z"/>
		<path class="st4" d="M76,171.6v25.2l-0.1,0.1c-0.6,1-9.2,8.1-25.4,8.1c-9.8,0-18.9-3.7-25.7-10.4c-6.9-6.7-10.6-15.8-10.6-25.5
			c0-9.7,3.8-18.8,10.6-25.6c6.8-6.8,16-10.5,25.7-10.5c9.1,0,16.6,2.9,24.3,9.3c0.4,0.4,0.5,0.9,0.2,1.3l0,0l-0.5,0.6
			c-0.3,0.3-0.6,0.3-0.8,0.3c-0.2,0-0.4-0.1-0.6-0.3c-7-6-13.9-8.7-22.6-8.7c-9,0-17.5,3.5-23.9,9.8c-6.4,6.3-9.9,14.7-9.9,23.8
			c0,9,3.5,17.4,9.9,23.7c6.3,6.2,14.8,9.7,23.9,9.7c14,0,21.7-5.7,22.8-6.6v-22.6h-22c-0.6,0-1.1-0.5-1.1-1.1v-0.4
			c0-0.5,0.5-1,1.1-1h23.6C75.5,170.6,76,171.1,76,171.6z"/>
		<path class="st4" d="M150.8,143.5c-6.8-6.8-15.9-10.5-25.7-10.5c-9.7,0-18.8,3.7-25.6,10.5c-6.8,6.8-10.5,15.9-10.5,25.6
			c0,9.7,3.7,18.8,10.5,25.5c6.8,6.7,15.9,10.4,25.6,10.4c9.7,0,18.9-3.7,25.7-10.4c6.8-6.7,10.6-15.8,10.6-25.5
			C161.4,159.4,157.6,150.3,150.8,143.5z M125.1,202.4c-18.8,0-33.5-14.6-33.5-33.3c0-9,3.5-17.5,9.8-23.8
			c6.3-6.3,14.7-9.8,23.8-9.8c9,0,17.5,3.5,23.8,9.8c6.3,6.3,9.8,14.7,9.8,23.8c0,9-3.5,17.4-9.8,23.7
			C142.6,199,134.2,202.4,125.1,202.4z"/>
		<path class="st4" d="M232.7,135v69.4c0,0.5-0.3,0.9-0.8,1.1c-0.1,0-0.2,0.1-0.3,0.1c-0.4,0-0.7-0.2-0.9-0.5l-50.4-67.2v65.1
			c0,0.6-0.5,1.1-1.1,1.1h-0.4c-0.6,0-1.1-0.5-1.1-1.1v-69.6c0-0.5,0.3-0.9,0.8-1.1c0.5-0.1,1,0,1.2,0.5l50.4,67.2V135
			c0-0.6,0.5-1.1,1.1-1.1h0.4C232.2,133.9,232.7,134.4,232.7,135z"/>
		<path class="st4" d="M256.7,136.5v29.7h34c0.6,0,1.1,0.5,1.1,1.1v0.4c0,0.6-0.5,1.1-1.1,1.1h-34v32.5h38.8c0.6,0,1.1,0.5,1.1,1.1
			v0.4c0,0.6-0.5,1.1-1.1,1.1h-40.3c-0.6,0-1.1-0.5-1.1-1.1V135c0-0.6,0.5-1.1,1.1-1.1h40.3c0.6,0,1.1,0.5,1.1,1.1v0.4
			c0,0.6-0.5,1.1-1.1,1.1H256.7z"/>
		<path class="st4" d="M392.3,171.6v25.2l-0.1,0.1c-0.6,1-9.2,8.1-25.4,8.1c-9.8,0-18.9-3.7-25.7-10.4c-6.9-6.7-10.6-15.8-10.6-25.5
			c0-9.7,3.8-18.8,10.6-25.6c6.8-6.8,16-10.5,25.7-10.5c9.1,0,16.6,2.9,24.3,9.3c0.4,0.4,0.5,0.9,0.2,1.3l0,0l-0.5,0.6
			c-0.4,0.4-1,0.4-1.4,0c-7-6-13.9-8.7-22.6-8.7c-9,0-17.5,3.5-23.9,9.8c-6.4,6.3-9.9,14.7-9.9,23.8c0,9,3.5,17.4,9.9,23.7
			c6.3,6.2,14.8,9.7,23.9,9.7c14,0,21.7-5.7,22.8-6.6v-22.6h-22c-0.6,0-1.1-0.5-1.1-1.1v-0.4c0-0.5,0.5-1,1.1-1h23.6
			C391.8,170.6,392.3,171.1,392.3,171.6z"/>
		<path class="st4" d="M467.1,143.5c-6.8-6.8-15.9-10.5-25.7-10.5c-9.7,0-18.8,3.7-25.6,10.5c-6.8,6.8-10.5,15.9-10.5,25.6
			c0,9.7,3.7,18.8,10.5,25.5c6.8,6.7,15.9,10.4,25.6,10.4c9.7,0,18.9-3.7,25.7-10.4c6.8-6.7,10.6-15.8,10.6-25.5
			C477.7,159.4,473.9,150.3,467.1,143.5z M441.4,202.4c-18.8,0-33.5-14.6-33.5-33.3c0-9,3.5-17.5,9.8-23.8
			c6.3-6.3,14.7-9.8,23.8-9.8c9,0,17.5,3.5,23.8,9.8c6.3,6.3,9.8,14.7,9.8,23.8c0,9-3.5,17.4-9.8,23.7
			C458.9,199,450.5,202.4,441.4,202.4z"/>
		<path class="st4" d="M550.8,143.5c-6.8-6.8-15.9-10.5-25.7-10.5c-9.7,0-18.8,3.7-25.6,10.5c-6.8,6.8-10.5,15.9-10.5,25.6
			c0,9.7,3.7,18.8,10.5,25.5c6.8,6.7,15.9,10.4,25.6,10.4c9.7,0,18.9-3.7,25.7-10.4c6.8-6.7,10.6-15.8,10.6-25.5
			C561.4,159.4,557.6,150.3,550.8,143.5z M525.1,202.4c-18.8,0-33.5-14.6-33.5-33.3c0-9,3.5-17.5,9.8-23.8
			c6.3-6.3,14.7-9.8,23.8-9.8c9,0,17.5,3.5,23.8,9.8c6.3,6.3,9.8,14.7,9.8,23.8c0,9-3.5,17.4-9.8,23.7
			C542.7,199,534.2,202.4,525.1,202.4z"/>
		<path class="st4" d="M598.5,133.9h-19.8c-0.6,0-1,0.5-1,1.1v67.9c0,0.6,0.5,1.1,1,1.1h19.8c9.5,0,18.3-3.6,25-10.3
			c6.7-6.6,10.4-15.5,10.4-24.9C633.8,149.6,618,133.9,598.5,133.9z M598.5,201.4h-18.3v-64.9h18.3c18.1,0,32.8,14.5,32.8,32.3
			C631.3,186.8,616.6,201.4,598.5,201.4z"/>
	</g>
</g>
<path class="st5" d="M409.1,117c-4.7,0-7.3-1-7.9-3c-0.8-2.5,2.1-5.5,8.6-9c5.8-3.1,13.7-6.3,22.4-8.9c11.6-3.5,33.9-8.4,35.8-2.2
	l0,0c0.8,2.5-2.1,5.5-8.6,9c-5.8,3.1-13.7,6.3-22.4,8.9s-17.1,4.4-23.6,4.9C411.8,116.9,410.3,117,409.1,117z M460,93.5
	c-1.1,0-2.4,0.1-4,0.2c-6.4,0.6-14.6,2.3-23.1,4.9c-8.5,2.6-16.3,5.6-22,8.7c-6.5,3.5-7.6,5.6-7.4,6.1c0.1,0.5,2.2,1.6,9.5,1
	c6.4-0.6,14.6-2.3,23.1-4.9c8.5-2.6,16.3-5.6,22-8.7c6.5-3.5,7.6-5.6,7.4-6.1C465.5,94.3,464.2,93.5,460,93.5z"/>
<path class="st6" d="M409.1,118.7c-2,0-8.3,0-9.5-4.1c-1.4-4.5,4.7-8.4,9.4-10.9c5.9-3.2,13.9-6.4,22.7-9c8-2.4,20.2-5.2,28.2-5.2
	c2.1,0,8.4,0,9.6,4.2c1.4,4.5-4.7,8.4-9.4,10.9c-5.9,3.2-13.9,6.4-22.7,9c-8.8,2.6-17.3,4.4-23.9,5
	C411.9,118.6,410.4,118.7,409.1,118.7z M406,112.6c0.7,0.1,1.7,0.2,3.2,0.2h0c1.1,0,2.4-0.1,3.8-0.2c6.3-0.6,14.4-2.3,22.8-4.8
	c8.4-2.5,16.1-5.6,21.6-8.6c3.3-1.8,5-3.1,5.8-3.9c-0.7-0.1-1.7-0.2-3.2-0.2c-1.1,0-2.4,0.1-3.8,0.2c-6.3,0.6-14.4,2.3-22.8,4.8
	c-8.4,2.5-16.1,5.6-21.6,8.6C408.5,110.5,406.8,111.8,406,112.6z"/>
<path class="st7" d="M409.1,118.7c-2,0-8.3,0-9.5-4.1c-1.4-4.5,4.7-8.4,9.4-10.9c5.9-3.2,13.9-6.4,22.7-9c8-2.4,20.2-5.2,28.2-5.2
	c2.1,0,8.4,0,9.6,4.2c1.4,4.5-4.7,8.4-9.4,10.9c-5.9,3.2-13.9,6.4-22.7,9c-8.8,2.6-17.3,4.4-23.9,5
	C411.9,118.6,410.4,118.7,409.1,118.7z M406,112.6c0.7,0.1,1.7,0.2,3.2,0.2h0c1.1,0,2.4-0.1,3.8-0.2c6.3-0.6,14.4-2.3,22.8-4.8
	c8.4-2.5,16.1-5.6,21.6-8.6c3.3-1.8,5-3.1,5.8-3.9c-0.7-0.1-1.7-0.2-3.2-0.2c-1.1,0-2.4,0.1-3.8,0.2c-6.3,0.6-14.4,2.3-22.8,4.8
	c-8.4,2.5-16.1,5.6-21.6,8.6C408.5,110.5,406.8,111.8,406,112.6z"/>
</svg>
